# xmcd
#
# Track frame offsets: 
#        150
#        26274
#        46107
#        75767
#        102399
#        122235
#        136113
#        151917
#        172821
#        196379
#
# Disc length: 2973 seconds
#
# Revision: 1
# Processed by: cddbd v1.5.2PL0 Copyright (c) Steve Scherf et al.
# Submitted via: ExactAudioCopy v0.99pb4
#
DISCID=690b9b0a
DTITLE=Wishbone Ash - The Power Of Eternity
DYEAR=2007
DGENRE=Blues
TTITLE0=The Power
TTITLE1=Driving a Wedge
TTITLE2=In Crisis
TTITLE3=Dancing with the Shadows
TTITLE4=Happiness
TTITLE5=Northern Lights (instrumental)
TTITLE6=Your Indulgence
TTITLE7=Growing Up
TTITLE8=Disappearing
TTITLE9=Hope Springs Eternal
EXTD=
EXTT0=
EXTT1=
EXTT2=
EXTT3=
EXTT4=
EXTT5=
EXTT6=
EXTT7=
EXTT8=
EXTT9=
PLAYORDER=
